<svg width="330" height="867" viewBox="0 0 330 867" fill="none" xmlns="http://www.w3.org/2000/svg">
<path d="M42.597 695.979C27.8322 684.557 14.0437 671.945 -1.93213 662.167C-9.98283 657.314 -19.8778 652.66 -29.9092 651.015C-12.267 641.625 4.94701 631.167 22.176 621.027C23.8826 620.576 25.658 620.249 27.4348 619.924C36.1187 618.236 44.8283 617.187 53.5717 618.565C61.802 619.899 69.6947 622.395 77.6563 625.017C98.7019 632.165 119.368 640.99 141.623 643.234C180.233 647.064 218.891 637.669 253.624 621.149C252.496 626.495 251.048 631.855 249.669 637.34C237.949 646.239 224.503 653.481 208.523 659.675C181.998 672.165 166.504 674.505 139.291 666.516C120.217 662.357 92.6194 646.27 77.3469 652.562C71.8635 699.414 181.807 712.353 236.317 679.075C230.647 693.929 224.077 708.628 216.537 723.045C200.744 727.506 184.432 730.136 168.043 730.851C124.865 732.633 77.3352 722.96 42.597 695.979Z" fill="#446813"/>
<path d="M84.8148 837.139C65.1019 829.746 47.4977 817.607 31.7448 803.796C17.7753 791.447 4.97367 777.966 -7.27176 764.016C-12.5587 757.966 -18.1657 751.928 -22.8964 745.408C-27.4895 739.14 -31.9015 732.608 -36.3704 726.269C-46.1896 712.286 -56.4652 698.066 -69.927 687.23C-75.2073 682.969 -81.6825 679.202 -88.537 677.111C-72.9187 671.443 -57.4652 664.887 -42.5491 657.651C-32.0127 657.551 -22.6686 661.203 -13.1923 666.577C-1.0318 673.566 10.085 681.621 21.1571 690.188C28.2074 695.592 35.0767 701.26 42.3646 706.209C50.1776 711.52 58.2595 715.542 67.0905 719.153C88.325 727.826 111.334 732.916 134.214 734.816C161.13 736.94 188.379 734.643 214.22 727.418C212.14 731.334 209.866 735.194 207.717 738.983C178.849 755.207 149.327 764.623 107.255 763.677C72.8104 761.789 44.4136 748.097 22.2018 722.854C10.1373 708.641 -13.3003 673.48 -24.3876 683.823C-45.365 733.016 56.4474 841.846 154.146 807.104C138.871 821.383 122.039 833.423 103.553 842.463C97.1116 841.122 90.8511 839.518 84.8148 837.139Z" fill="#446813"/>
<path d="M188.914 515.186C205.347 502.715 221.973 490.299 239.77 480.009C257.067 469.995 275.315 461.411 293.645 453.272C295.959 453.627 298.148 454.051 300.337 454.475L293.853 456.905C272.001 461.607 263.322 484.311 259.698 512.052C247.643 514.128 234.987 513.93 222.524 513.787C211.406 513.718 200.025 513.468 188.914 515.186Z" fill="#446813"/>
<path d="M117.462 631.61C98.6978 625.649 80.9345 615.88 61.328 612.827C52.5172 611.324 43.9061 611.667 35.5976 613.146C82.4874 585.857 130.121 559.624 173.413 526.982C174.594 526.17 175.581 525.3 176.763 524.486C181.996 522.744 187.379 521.573 192.913 520.969C204.993 519.53 217.15 520.005 229.156 519.911C239.179 519.768 249.384 519.362 259.207 517.375C258.33 525.841 257.853 534.74 257.571 543.695C251.033 549.576 244.583 554.432 235.081 559.665C217.452 569.374 182.279 570.007 169.623 581.05C186.257 607.41 234.184 599.754 255.958 589.881C256.333 589.675 256.708 589.468 256.958 589.33C256.683 600.073 256.038 609.554 254.679 617.145C233.461 626.55 211.736 634.441 188.613 637.724C164.978 640.964 140.045 638.889 117.462 631.61ZM104.439 591.691C107.337 609.975 130.812 609.104 139.265 595.161C129.166 574.163 100.639 573.253 104.439 591.691Z" fill="#446813"/>
<path d="M-128.494 689.176C-124.387 688.056 -120.278 686.934 -116.171 685.812C-112.257 684.635 -108.217 683.387 -104.303 682.21C-97.8014 681.887 -91.6354 682.729 -85.5045 685.87C-77.5483 689.961 -70.5412 695.879 -64.3416 702.404C-51.3334 716.261 -41.1186 732.143 -29.8494 747.282C-19.7925 760.809 -7.92916 773.177 3.85177 785.102C16.9032 798.444 30.7606 811.181 46.137 821.941C61.9696 832.938 79.2956 841.319 97.3332 845.074C84.6541 850.753 71.288 855.181 57.275 857.846C50.7149 855.105 43.8779 851.863 36.8911 848.053C13.41 835.891 -6.69578 821.87 -23.167 799.655C-37.0203 782.192 -41.123 759.358 -54.9089 742.019C-100.423 689.849 -78.1016 775.649 -65.8724 794.008C-51.1092 816.673 -18.9078 844.075 3.34998 860.822C-18.962 858.77 -40.3586 852.467 -60.2983 842.591C-101.586 801.944 -129.986 748.008 -128.494 689.176Z" fill="#446813"/>
<path d="M67.5165 567.544C64.9256 574.674 60.9778 581.411 55.7028 586.922C52.8783 589.781 49.7906 592.46 46.4963 594.762C45.3149 595.576 44.1335 596.39 42.9522 597.203C31.5315 603.982 20.1661 610.566 8.60761 617.095C-14.6901 630.415 -37.6571 644.04 -62.4129 654.416C-68.6344 657.027 -74.9232 659.513 -81.2121 661.999C-75.4213 651.803 -73.8348 638.708 -74.1412 627.796C-74.6769 607.886 -79.6775 588.154 -86.3604 569.512C-91.9038 553.825 -98.1397 538.358 -103.433 522.534C-109.671 503.809 -114.272 484.509 -117.097 464.881C-119.815 446.336 -120.45 427.133 -117.291 408.609C-106.011 406.308 -94.1985 406.158 -82.2108 407.214C-97.754 456.51 -93.0714 543.714 -57.5689 551.373C-32.1985 529.091 -47.2084 460.121 -33.8067 427.648C-32.3945 424.589 -30.9835 421.53 -29.5024 418.597C-7.19454 425.375 15.1781 433.748 36.3803 439.996C9.34505 481.445 10.2295 587.198 44.936 555.537C51.224 516.064 45.0017 481.687 63.153 446.597C63.5405 446.709 63.8605 446.697 64.248 446.809C68.5562 447.532 72.7969 448.13 77.286 448.59C72.0716 471.667 70.4593 495.368 71.1597 519.423C71.7388 535.562 73.2858 551.982 67.5165 567.544ZM-21.8182 586.108C-20.1781 611.277 14.2162 603.905 18.4383 583.165C14.0803 561.939 -24.464 551.718 -21.8182 586.108Z" fill="#00210A"/>
<path d="M188.211 492.601C185.431 498.205 182.458 503.754 179.222 509.12C178.984 509.577 178.622 510.102 178.385 510.559C169.989 516.323 161.858 522.267 153.463 528.031C125.415 547.225 96.7491 565.295 67.7376 582.738C69.5495 580.111 71.2236 577.234 72.5103 574.243C79.0234 559.739 79.777 543.355 78.6431 527.686C76.7033 501.38 77.1762 474.722 82.2205 448.969C94.0826 450.094 106.558 450.556 119.59 450.549C116.854 455.64 114.506 460.844 112.795 466.023C107.74 483.472 108.935 553.695 135.97 534.733C147.953 526.015 144.703 486.09 152.444 473.517C156.335 463.716 162.353 456.003 169.57 449.583C181.883 449.157 194.195 448.731 206.645 448.556C205.303 451.739 204.029 455.048 202.755 458.356C198.04 469.915 193.713 481.586 188.211 492.601Z" fill="#00210A"/>
<path d="M222.072 483.077C211.958 488.973 201.65 494.813 191.81 501.209C192.592 499.964 193.179 498.664 193.891 497.293C199.338 486.472 203.677 475.12 207.629 463.656C209.409 458.603 211.119 453.424 213.023 448.302C237.48 448.032 261.655 448.731 284.518 451.782C262.956 460.561 242.051 471.422 222.072 483.077Z" fill="#00210A"/>
<path d="M-205.771 568.923C-193.759 589.844 -178.16 607.815 -160.268 624.031C-143.439 639.204 -124.483 653.208 -110.604 671.309C-107.384 670.35 -104.164 669.392 -101.013 668.308C-98.1114 667.363 -95.4044 666.361 -92.5044 665.414C-83.9418 655.811 -81.3723 643.316 -82.4753 630.072C-83.8535 613.07 -87.5081 596.671 -92.5641 580.391C-97.2488 565.372 -103.38 550.988 -108.19 536.039C-114.235 517.37 -119.46 498.414 -122.911 479.131C-127.012 456.296 -127.908 432.185 -123.443 409.521C-123.318 409.452 -123.194 409.383 -123.125 409.508C-121.293 408.988 -119.266 408.524 -117.366 408.129C-120.526 426.653 -119.89 445.856 -117.171 464.401C-114.347 484.028 -109.622 503.261 -103.507 522.055C-98.2152 537.878 -91.9778 553.345 -86.4358 569.031C-79.8785 587.744 -74.8765 607.476 -74.2152 627.316C-73.8535 638.034 -75.4968 651.323 -81.2875 661.519C-74.9298 659.158 -68.7098 656.547 -62.4884 653.936C-37.7326 643.561 -14.7656 629.934 8.53221 616.614C20.0218 609.961 31.3872 603.377 42.8767 596.723C44.0581 595.909 45.2395 595.097 46.4208 594.282C49.7152 591.979 52.8029 589.301 55.6274 586.442C60.9024 580.93 64.8502 574.193 67.4411 567.063C73.2104 551.502 71.5378 535.15 71.0857 518.944C70.3839 494.887 71.9962 471.187 77.2106 448.11C78.7498 448.24 80.3564 448.496 81.8956 448.626C76.9754 474.311 76.4337 500.844 78.3181 527.343C79.4534 543.014 78.6984 559.397 72.1854 573.901C70.8987 576.89 69.1556 579.643 67.4126 582.396C96.5483 564.883 125.216 546.815 153.138 527.689C161.533 521.926 169.733 516.105 178.06 510.216C178.297 509.76 178.659 509.235 178.897 508.778C182.133 503.41 185.106 497.863 187.886 492.258C193.389 481.243 197.716 469.572 202.236 457.958C203.51 454.649 204.784 451.341 206.127 448.157C208.359 448.068 210.466 448.048 212.768 448.084C210.863 453.207 209.153 458.385 207.373 463.439C203.421 474.903 199.082 486.255 193.635 497.076C193.047 498.377 192.267 499.622 191.555 500.992C201.394 494.596 211.702 488.756 221.816 482.859C241.92 471.136 262.7 460.344 284.331 451.69C285.938 451.946 287.545 452.201 289.152 452.457C290.566 452.656 292.048 452.98 293.461 453.18C275.132 461.319 257.077 469.958 239.586 479.917C221.789 490.207 205.094 502.498 188.729 515.094C199.841 513.374 211.222 513.624 222.409 513.819C234.747 514.031 247.528 514.161 259.583 512.084C259.397 513.817 259.141 515.425 258.954 517.157C249.132 519.144 238.871 519.743 228.903 519.693C216.897 519.788 204.615 519.381 192.66 520.751C187.127 521.355 181.811 522.652 176.511 524.268C175.329 525.082 174.341 525.952 173.16 526.765C129.744 559.475 82.1085 585.708 35.3443 612.929C43.6542 611.449 52.2639 611.106 61.0761 612.609C80.6244 615.855 98.4459 625.432 117.208 631.393C139.793 638.671 164.795 640.871 188.361 637.507C211.483 634.224 233.208 626.332 254.426 616.928C254.37 617.122 254.314 617.315 254.258 617.51C254.046 618.605 253.709 619.767 253.497 620.862C218.638 637.452 180.105 646.778 141.495 642.949C119.24 640.703 98.574 631.878 77.5285 624.731C69.6911 622.04 61.7983 619.543 53.4438 618.278C44.7019 616.901 35.8667 618.019 27.3069 619.637C25.5301 619.963 23.8236 620.415 22.0482 620.74C4.82061 630.881 -12.326 641.464 -30.037 650.729C-20.0056 652.373 -9.98508 656.958 -2.05996 661.881C13.9158 671.659 27.83 684.201 42.4692 695.692C77.2074 722.673 124.668 732.221 167.97 730.372C184.359 729.655 200.673 727.026 216.466 722.566C215.629 724.004 214.985 725.498 214.148 726.937C188.308 734.162 161.058 736.459 134.143 734.335C111.33 732.559 88.254 727.345 67.0194 718.672C58.3814 715.118 50.1066 711.039 42.2936 705.729C35.0057 700.779 28.1363 695.113 21.0861 689.707C10.0125 681.14 -1.17172 672.961 -13.2633 666.096C-22.6155 660.655 -32.0838 657.07 -42.6201 657.17C-57.6619 664.477 -72.9912 670.962 -88.608 676.63C-81.7535 678.721 -75.2798 682.488 -69.9995 686.751C-56.5362 697.585 -46.2607 711.806 -36.4414 725.788C-31.974 732.127 -27.5619 738.659 -22.9675 744.929C-18.1126 751.378 -12.6312 757.485 -7.34422 763.535C4.90117 777.486 17.7717 791.091 31.6737 803.315C47.4267 817.126 65.0294 829.266 84.7437 836.659C90.7801 839.038 97.0391 840.642 103.344 841.733C101.274 842.709 99.2047 843.686 97.1364 844.662C79.1002 840.907 61.7743 832.526 45.9402 821.529C30.5638 810.769 16.7064 798.034 3.65495 784.69C-8.12601 772.766 -20.0582 760.272 -30.0462 746.87C-41.3154 731.731 -51.4735 715.654 -64.5385 701.992C-70.7381 695.468 -77.6209 689.48 -85.7013 685.458C-91.8322 682.316 -97.9982 681.475 -104.5 681.798C-108.54 683.045 -112.454 684.223 -116.368 685.4C-120.475 686.522 -124.583 687.644 -128.69 688.766C-130.183 747.596 -101.783 801.532 -60.6208 842.249C-64.9235 840.056 -69.1021 837.795 -73.224 835.34C-111.772 796.116 -138.826 745.512 -133.56 689.981C-141.082 692.004 -148.603 694.029 -155.906 696.747C-157.1 697.241 -158.488 697.68 -159.682 698.174C-171.635 702.802 -183.288 708.568 -194.609 714.64C-219.809 728.355 -243.436 744.627 -268.222 759.091C-270.972 760.606 -273.598 762.052 -276.348 763.567C-277.283 760.984 -278.284 758.277 -279.343 755.765C-258.495 741.84 -237.248 728.346 -215.933 714.977C-198.786 704.394 -181.101 694.491 -162.553 687.045C-154.943 683.997 -147.129 681.322 -139.163 679.216C-132.461 677.48 -125.759 675.745 -119.25 673.952C-134.235 658.578 -150.751 644.861 -166.779 630.551C-184.867 614.278 -200.297 595.727 -212.197 574.416C-225.322 551.174 -230.289 525.882 -233.48 500.265C-232.262 497.15 -230.85 494.092 -229.37 491.159C-228.316 498.399 -227.262 505.64 -226.082 512.812C-222.619 532.413 -215.729 551.432 -205.771 568.923Z" fill="#65A30D"/>
<path d="M97.309 227.83C88.7464 219.375 80.0014 210.741 70.3409 203.479C69.9933 203.237 69.538 203.074 69.0827 202.911C69.0027 202.804 68.8757 202.689 68.7488 202.575C68.6218 202.46 68.4949 202.346 68.4149 202.238C112.06 219.571 169.477 267.771 169.282 318.054C160.418 307.196 150.059 298.154 139.713 289.125C128.065 278.96 116.436 268.81 106.984 256.104C102.973 250.712 99.0685 245.109 95.1423 239.475C89.1974 230.942 83.2019 222.337 76.7083 214.285C83.872 220.32 91.0356 226.355 97.849 232.818C102.029 236.799 106.267 240.736 110.506 244.674L110.508 244.676L110.51 244.676C116.16 249.925 121.811 255.174 127.321 260.528C127.909 261.093 128.717 260.157 128.129 259.592C123.636 255.127 119.29 250.516 114.943 245.904C109.985 240.643 105.025 235.381 99.8432 230.331C98.9995 229.5 98.1551 228.666 97.309 227.83Z" fill="#00210A"/>
<path d="M74.8902 274.966C67.8151 246.136 60.6601 217.199 50.6856 189.189L50.5255 188.974C54.1925 239.057 61.448 297.333 84.0128 342.716C95.5625 296.688 81.6582 251.714 61.9995 210.687C67.925 231.682 72.1594 253.099 76.1786 274.676C76.3636 275.374 75.0752 275.664 74.8902 274.966Z" fill="#00210A"/>
<path d="M29.1619 234.615C29.4292 221.047 29.0261 207.475 27.9525 193.901C27.4958 187.222 26.6362 180.675 25.4015 174.073C25.269 173.67 25.2165 173.375 25.164 173.08C49.6485 228.232 47.4134 299.585 27.269 355.851L24.5955 367.533C9.69059 341.522 7.16055 289.993 5.51417 256.451C5.36583 253.428 5.2249 250.55 5.08174 247.85C4.64055 231.999 7.44418 216.181 10.2053 200.6C12.8929 185.441 15.54 170.506 15.1202 155.985C15.6478 156.575 16.1835 157.111 16.7057 157.633C17.162 158.089 17.6081 158.536 18.0317 159C18.4172 161.034 18.8454 163.091 19.2753 165.156C19.929 168.294 20.5872 171.454 21.1086 174.593C22.2634 181.087 23.0153 187.714 23.5796 194.313C24.8159 207.432 25.1665 220.708 25.1419 233.929C25.1727 260.479 24.1578 286.971 22.9553 313.435C22.8727 313.998 23.8908 314.243 23.8934 313.573C24.4829 304.213 25.267 294.857 26.051 285.499C27.4694 268.56 28.8881 251.612 29.1619 234.615Z" fill="#00210A"/>
<path d="M-54.3271 339.51L-54.3276 339.511C-54.7338 340.482 -55.1389 341.451 -55.5721 342.441C-55.9775 343.244 -54.7192 343.812 -54.2063 342.929C-36.132 304.715 -28.1435 263.546 -20.1501 222.349C-14.9287 195.441 -9.70529 168.521 -1.66837 142.403C-1.78581 220.871 -7.44267 289.422 -56.46 356.973C-61.1677 291.788 -48.235 200.443 -7.63263 145.169C-14.9902 171 -19.7825 197.464 -24.5712 223.911C-31.4984 262.162 -38.4174 300.374 -53.0821 336.578C-53.5151 337.569 -53.9211 338.539 -54.3271 339.51Z" fill="#00210A"/>
<path d="M-90.7807 224.133C-80.4866 213.965 -70.133 203.737 -60.4343 192.807C-49.7658 180.702 -39.63 168.328 -30.4256 155.152C-56.5247 203.878 -99.0985 248.143 -140.982 279.302C-130.674 221.497 -77.5203 145.353 -19.3219 123.616C-24.1341 133.547 -29.2663 143.047 -35.4168 152.302C-44.1294 165.301 -54.0203 177.841 -64.2037 189.762C-74.6023 201.843 -85.1885 213.896 -96.3625 225.384C-102.15 231.4 -108.075 237.303 -113.997 243.201C-118.489 247.676 -122.979 252.15 -127.405 256.667C-128.078 257.335 -126.902 258.466 -126.229 257.798C-115.411 248.079 -104.94 238.116 -94.6294 227.939C-93.3487 226.67 -92.0643 225.402 -90.7807 224.133Z" fill="#00210A"/>
<path d="M66.9475 179.598C71.6424 180.243 76.3494 180.669 81.0545 181.095C86.6108 181.597 92.1652 182.099 97.6943 182.963C100.291 183.344 102.841 183.795 105.377 184.244C108.521 184.799 111.645 185.352 114.82 185.765C120.288 186.376 125.782 187.47 131.22 188.939C135.064 189.962 138.833 191.198 142.592 192.43C149.834 194.804 157.039 197.166 164.68 197.973C165.806 198.138 165.558 199.827 164.432 199.662C157.172 199.124 150.158 197.148 143.159 195.175L143.157 195.175C138.733 193.928 134.314 192.683 129.841 191.804C123.973 190.654 118.156 189.8 112.178 189.402C109.336 189.176 106.562 188.817 103.787 188.457L103.786 188.457C101.013 188.098 98.2389 187.738 95.3971 187.513C91.8987 187.191 88.3864 186.963 84.8742 186.734C81.362 186.506 77.8497 186.278 74.3513 185.956C76.541 186.83 78.7237 187.713 80.9019 188.595C92.6854 193.361 104.331 198.072 116.021 201.082C148.391 207.752 184.263 210.144 216.185 200.936C194.942 181.142 150.615 173.675 122.167 172.277C112.948 171.646 102.198 172.857 91.1037 174.108C75.7087 175.843 59.651 177.653 46.1024 174.717C52.6887 177.505 59.9782 178.767 66.9475 179.598Z" fill="#00210A"/>
<path d="M65.6515 136.811L65.6507 136.81C57.4384 138.531 49.2408 140.249 40.9218 141.47C31.1277 142.906 20.4507 143.83 10.915 140.897C67.2883 112.663 128.238 107.429 189.312 125.5C169.294 138.922 133.397 144.224 106.29 148.227L106.278 148.228C102.588 148.774 99.0605 149.294 95.7583 149.809C76.0101 152.467 50.0234 152.581 27.7573 147.587C31.217 147.52 34.6243 147.157 38.0315 146.795C48.7522 145.483 59.3298 143.095 69.8725 140.717C71.2293 140.411 72.5853 140.104 73.9408 139.801C85.2308 137.235 96.7658 135.754 108.258 134.279C109.278 134.148 110.3 134.017 111.321 133.886C113.582 133.582 115.847 133.273 118.117 132.963L118.118 132.962C132.625 130.98 147.289 128.977 161.947 128.478C162.617 128.48 162.487 127.407 161.817 127.405C145.511 127.502 129.523 128.7 113.293 130.246C111.071 130.459 108.855 130.661 106.647 130.863C96.2968 131.808 86.0783 132.742 75.8378 134.713C72.4342 135.39 69.0419 136.101 65.6515 136.811Z" fill="#00210A"/>
<path d="M51.6509 78.8384C57.1385 77.9029 62.6741 77.0837 68.2176 76.2637C87.9903 73.3395 107.869 70.4 126.082 62.0718C126.592 61.8593 126.857 62.6649 126.347 62.8774C114.901 68.3842 103.137 72.7902 90.8441 75.585C78.6584 78.2999 66.3125 80.7995 54.0218 82.9239C30.0031 87.2554 6.53949 93.6809 -13.4957 108.084C4.33979 114.536 39.5734 108.881 52.1344 106.221C90.8486 95.1351 131.685 76.1193 162.084 51.8334C131.315 47.3157 81.1939 53.852 50.6849 65.1845C48.5747 66.0591 46.2092 67.0151 43.6543 68.0467C24.1032 75.9417 -6.50895 88.3036 -18.5457 103.318L-17.5053 104.717C2.82772 89.5902 26.8818 83.0597 51.6509 78.8384Z" fill="#00210A"/>
<path d="M-5.99475 55.0415C-15.9474 62.7799 -27.0559 71.211 -39.4843 74.2736C-39.5085 74.2815 -39.5327 74.2895 -39.5561 74.2985C-39.6065 74.316 -39.6532 74.334 -39.6978 74.3505C-39.9787 74.4559 -40.1896 74.5342 -40.5576 74.4035L-41.3579 73.3277C-32.0229 65.534 -22.9195 57.4831 -13.8612 49.4725C32.3983 8.56209 77.4675 -31.2974 146.179 -30.4246C120.423 0.100978 91.99 29.2753 53.5527 45.0019C47.0964 47.7443 40.4661 50.8369 33.7059 53.9909C13.6085 63.3687 -7.6431 73.2842 -28.9253 76.1114C-20.6244 72.4429 -13.1212 67.028 -5.99325 61.5581C-1.10201 57.8441 3.62326 53.9093 8.35851 49.9654C14.0664 45.2128 19.7895 40.447 25.8312 36.0442C39.2239 26.4152 54.2697 19.2329 69.1804 12.3183C70.4289 11.7321 71.6774 11.1459 72.9256 10.5616C86.9181 4.00085 100.919 -2.56435 114.268 -10.1941C115.424 -10.8868 114.116 -12.4205 113.067 -11.8078C100.831 -4.83025 87.9061 0.737252 75.0222 6.28775L75.015 6.29145C72.7051 7.28626 70.3959 8.28213 68.0927 9.28366L66.5064 9.97743C52.2414 16.2212 37.4152 22.7102 24.4011 31.426C17.286 36.273 10.5991 41.6956 3.94366 47.093L3.9426 47.0938C0.638706 49.774 -2.65768 52.4486 -5.99475 55.0415Z" fill="#00210A"/>
<path d="M-7.52631 -6.3232L-7.52414 -6.32481C3.39044 -13.4419 14.3061 -20.5598 24.2327 -28.7802L24.4342 -28.9451C28.9434 -32.629 33.5517 -36.3931 37.8208 -40.393C42.1542 -44.4524 45.6597 -49.4001 48.8701 -54.2952C49.5982 -55.3383 51.149 -54.1523 50.4209 -53.1092C35.298 -33.0012 15.8729 -16.8788 -5.04526 -2.98819C-15.9885 4.31729 -26.9842 11.3276 -37.9798 18.3379C-42.5027 21.2464 -46.9659 24.2843 -51.4311 27.322L-51.4354 27.3253L-51.4408 27.3293C-56.792 30.9709 -62.1461 34.6131 -67.6095 38.0409L-67.3694 38.3636C-5.48014 26.0805 59.5623 -24.6469 84.763 -84.6741C47.8449 -73.4202 17.8913 -46.2899 -8.14203 -20.4049C-13.8321 -15.271 -20.0943 -10.0909 -26.4797 -4.80904C-39.0585 5.59503 -52.1111 16.3933 -62.207 28.0053C-57.1873 24.5133 -51.9588 21.3021 -46.7736 18.1181L-46.7714 18.1165L-46.7692 18.1149L-46.7682 18.1141C-44.7881 16.8984 -42.8144 15.6875 -40.8611 14.4649C-29.7053 7.6698 -18.5495 0.874697 -7.52631 -6.3232Z" fill="#00210A"/>
<path d="M-66.3001 -15.9113C-71.3289 -12.3373 -76.7854 -9.11357 -82.2669 -6.37266C-84.014 -5.49072 -85.7912 -4.65154 -87.5088 -3.84002L-87.5118 -3.83949L-87.515 -3.83709L-87.5212 -3.83417C-88.5478 -3.34955 -89.5526 -2.87605 -90.5153 -2.40888C-91.7237 -2.01131 -92.932 -1.61376 -94.0327 -1.29623C-76.8893 -12.0478 -61.0992 -30.4077 -46.4929 -47.389C-41.5851 -53.0957 -36.8104 -58.6467 -32.163 -63.7017C-6.57452 -92.4312 25.346 -108.156 61.4637 -120.486C52.5243 -97.4576 -35.0403 -13.4297 -78.5578 -1.61148C-73.9894 -4.00731 -69.4736 -6.69832 -65.3054 -9.63206C-54.0119 -17.3653 -44.1341 -26.5521 -34.6565 -36.2769C-30.4492 -40.5935 -26.3105 -44.991 -22.1707 -49.3894C-7.66164 -64.8076 6.85606 -80.2321 24.3454 -92.2037C24.9909 -92.6839 24.1905 -93.7597 23.545 -93.2795C7.50113 -82.8111 -6.35943 -69.4079 -20.1441 -56.0779C-25.2091 -51.18 -30.2642 -46.2912 -35.4136 -41.5629C-45.2639 -32.5637 -55.3818 -23.6996 -66.3001 -15.9113Z" fill="#00210A"/>
<path d="M-92.9618 19.4627C-119.294 18.663 -144.687 31.7049 -170.077 36.8892C-185.295 40.0213 -200.722 41.9727 -215.995 45.48C-223.243 47.195 -230.518 49.0975 -237.608 51.6981C-244.778 54.1911 -251.095 58.0551 -257.279 62.3219C-257.817 62.722 -257.177 63.5827 -256.639 63.1825C-250.402 59.2109 -243.527 56.7705 -236.732 54.2224C-229.24 51.4893 -221.482 49.5618 -213.672 47.9295C-198.857 44.9299 -183.724 43.031 -168.989 39.9238C-142.686 34.3944 -116.592 20.4971 -89.1425 23.4734C-88.9549 23.5009 -88.7672 23.5284 -88.6596 23.4484C-88.2594 23.9863 -87.9393 24.4166 -87.6468 25.0346C-86.5538 26.7284 -85.4334 28.2345 -84.3404 29.9283C-76.9273 40.7915 -69.0839 51.3345 -61.133 61.7975C-61.4282 61.85 -61.5357 61.93 -61.8309 61.9825C-72.9737 65.4254 -84.1439 69.056 -95.3391 72.2038C-109.354 76.2792 -123.476 80.4346 -137.306 85.2081C-165.153 94.7273 -192.18 107.146 -215.207 125.614C-216.176 126.335 -214.975 127.948 -214.007 127.228C-190.124 109.46 -163.124 97.2292 -135.09 87.7375C-121.583 83.2042 -107.863 79.1813 -94.1439 75.1584C-82.3307 71.718 -70.3049 68.788 -58.6243 64.9449C-58.4642 65.16 -58.3042 65.3752 -58.1441 65.5903C-50.0331 76.2685 -41.7069 86.7866 -33.3807 97.3047C-33.7034 97.5448 -34.0261 97.7849 -34.3489 98.025C-44.8119 105.976 -57.7035 110.887 -69.6294 115.748C-76.049 118.352 -82.4686 120.955 -88.8356 123.853C-95.633 127.072 -102.165 131.096 -108.43 135.255C-133.836 151.649 -156.309 172.211 -177.979 193.179C-178.975 194.087 -177.802 195.888 -176.698 194.9C-154.281 174.713 -131.916 154.231 -106.589 137.729C-94.195 129.679 -81.2181 123.534 -67.4134 118.278C-60.9138 115.782 -54.4142 113.287 -48.1272 110.281C-42.8885 107.888 -38.0499 104.956 -33.1037 101.945C-32.2706 101.493 -31.5176 100.932 -30.6844 100.48C-26.1474 106.129 -21.6379 111.966 -17.2084 117.695C-18.0468 119.489 -18.9127 121.47 -19.8586 123.344C-24.5632 133.194 -29.723 142.882 -35.9534 152.03C-44.6937 165.217 -54.557 177.568 -64.7404 189.489C-75.059 201.678 -85.7252 213.624 -96.8992 225.112C-107.077 235.692 -117.683 245.922 -127.942 256.395C-128.615 257.063 -127.439 258.194 -126.766 257.526C-115.948 247.806 -105.477 237.844 -95.1661 227.666C-83.5092 216.153 -71.7723 204.748 -60.9709 192.534C-50.1971 180.508 -40.1186 167.997 -31.1633 154.65C-31.1357 154.462 -30.9206 154.302 -30.893 154.114C-24.3923 144.432 -17.7539 133.811 -13.6345 122.724C-12.6741 124.015 -11.606 125.226 -10.7256 126.41C-8.88486 128.884 -6.93645 131.278 -4.98808 133.673C-6.20945 137.422 -7.35085 141.28 -8.38461 145.057C-26.3837 208.25 -29.0309 275.23 -53.8337 336.466C-54.592 338.367 -55.4579 340.348 -56.3238 342.329C-56.7292 343.132 -55.4709 343.7 -55.0655 342.897C-25.1866 279.724 -22.979 208.558 -2.5279 142.371C-2.03987 141.005 -1.73948 139.612 -1.25145 138.246C3.90092 144.273 9.08085 150.113 14.5835 155.712C15.4914 156.708 16.507 157.624 17.4949 158.727C18.3597 163.933 19.7072 169.114 20.5719 174.32C21.6191 180.895 22.371 187.522 23.0429 194.041C24.2791 207.16 24.6298 220.436 24.6052 233.657C24.5563 260.099 23.6215 286.699 22.4191 313.163C22.4165 313.833 23.3546 313.971 23.3572 313.301C25.0149 286.999 28.2011 260.73 28.6252 234.343C28.8925 220.774 28.4893 207.203 27.4158 193.629C26.8515 187.03 26.0996 180.403 24.9449 173.908C24.8924 173.613 24.8399 173.318 24.7074 172.915C24.2625 170.071 23.7376 167.119 23.1852 164.354C25.1886 166.373 27.2197 168.205 29.3308 170.144C36.1717 176.419 43.1202 182.614 50.0411 188.997C50.1212 189.105 50.1212 189.105 50.2012 189.212C60.0685 217.302 67.3311 246.159 74.4061 274.989C74.5911 275.687 75.6919 275.37 75.6945 274.699C71.6753 253.122 67.3334 231.785 61.5151 210.71C59.98 205.502 58.4448 200.293 56.802 195.164C60.0887 198.234 63.4553 201.412 66.6344 204.562C66.3366 205.285 66.6016 206.091 67.2694 206.764C70.2359 209.403 73.2303 211.856 76.2243 214.308C83.388 220.343 90.4441 226.458 97.365 232.841C107.225 242.051 117.22 250.993 126.837 260.551C127.425 261.116 128.046 260.153 127.645 259.615C118.136 249.977 109.084 239.832 99.3592 230.354C89.9821 221.119 80.3925 211.374 69.8566 203.502C69.4289 203.152 69.0536 203.097 68.6784 203.041C68.5183 202.826 68.1707 202.584 68.0106 202.368C63.5235 197.685 59.1164 193.109 54.6292 188.425C54.3642 187.619 54.1791 186.921 53.8065 186.196C53.3289 184.88 52.2032 184.715 51.21 184.952C49.9544 183.714 48.6988 182.475 47.6308 181.264C52.6663 182.866 57.7844 183.905 62.8501 184.649C66.6024 185.2 70.1947 185.535 73.9746 185.899C80.9715 186.543 88.0234 186.812 95.0203 187.456C100.597 187.987 106.198 189.001 111.801 189.345C117.78 189.744 123.596 190.598 129.465 191.747C141.014 194.017 152.206 198.727 164.056 199.605C165.181 199.77 165.457 197.894 164.304 197.916C152.696 196.691 142.095 191.876 130.844 188.883C125.485 187.521 119.992 186.427 114.443 185.708C108.6 185.042 102.946 183.732 97.3176 182.905C87.1863 181.418 76.8096 180.948 66.5708 179.541C59.5214 178.602 52.2319 177.34 45.6456 174.552C42.9415 173.388 40.4526 172.065 38.0188 170.366C37.4035 169.988 36.9482 169.825 36.2778 169.822C35.61 169.149 34.9422 168.476 34.2743 167.803C27.5161 160.965 20.7853 153.94 14.3773 146.674C18.5849 147.388 22.8751 147.538 27.3005 147.422C30.7602 147.355 34.1675 146.992 37.5748 146.63C49.6753 145.149 61.5935 142.299 73.484 139.636C85.8574 136.949 98.3607 135.335 110.864 133.721C127.66 131.587 144.619 128.998 161.49 128.313C162.16 128.316 162.031 127.242 161.36 127.24C145.055 127.337 129.067 128.535 112.836 130.081C100.2 131.293 87.7269 132.049 75.381 134.548C63.7331 136.863 52.2178 139.58 40.465 141.305C30.671 142.742 19.8864 143.746 10.2706 140.705C9.81538 140.542 9.44011 140.487 8.98484 140.324C6.31614 136.962 3.64743 133.599 1.08633 130.156C0.981366 129.566 0.473603 129.108 0.04587 128.758C-1.79492 126.283 -3.71575 123.701 -5.63658 121.119C-8.75793 116.924 -11.8793 112.728 -15.0006 108.532C-14.6779 108.292 -14.3551 108.052 -14.0323 107.812C6.00282 93.4084 29.4664 86.983 53.4851 82.6515C65.8834 80.447 78.1218 78.0274 90.3075 75.3125C102.708 72.4376 114.364 68.1117 125.81 62.605C126.32 62.3924 125.948 61.6669 125.545 61.7994C102.226 72.4626 76.1786 74.2922 51.1142 78.566C26.3451 82.7873 2.29105 89.3177 -18.0419 104.444C-18.3621 104.014 -18.6822 103.584 -19.0824 103.046C-25.1926 95.0571 -31.3027 87.0685 -37.4129 79.0798C-34.621 78.3398 -31.9891 77.3846 -29.4097 76.1342C-21.1088 72.4656 -13.6057 67.0509 -6.47771 61.5809C4.41561 53.3098 14.401 44.0429 25.3468 36.067C38.6594 26.3303 53.7853 19.2557 68.696 12.3411C83.9295 5.18636 99.1353 -1.78075 113.784 -10.1714C114.939 -10.8641 113.631 -12.3978 112.583 -11.7851C98.0699 -3.66213 82.7591 2.71457 67.6083 9.30642C52.8603 15.7658 37.3342 22.3025 23.9167 31.4488C13.3762 38.6218 3.68862 47.1657 -6.47917 55.0642C-16.4318 62.8026 -27.5403 71.2338 -39.9688 74.2963C-40.3715 74.4288 -40.6668 74.4814 -40.9895 74.7215C-41.2296 74.3987 -41.5498 73.9684 -41.7899 73.6457C-44.9112 69.45 -48.2202 65.2267 -51.3415 61.031C-51.4465 60.4406 -51.7666 60.0103 -52.3019 59.74C-57.5042 52.7472 -62.7865 45.6468 -67.8812 38.574C-67.9612 38.4664 -68.0412 38.3588 -68.1213 38.2512C-58.1738 31.8537 -48.519 24.8382 -38.4915 18.5482C-27.4959 11.5379 -16.3126 4.55514 -5.55697 -2.77789C15.1736 -16.6961 34.7062 -32.8984 49.9092 -52.8989C50.6373 -53.942 49.0865 -55.1281 48.3584 -54.085C45.148 -49.1898 41.6425 -44.2421 37.309 -40.1827C32.9756 -36.1233 28.2945 -32.3066 23.721 -28.5699C13.6857 -20.2686 2.77002 -13.1508 -8.03804 -6.11293C-19.0613 1.08496 -30.2971 7.77253 -41.3728 14.6752C-48.4431 19.0995 -55.781 23.3886 -62.7187 28.2156C-65.5959 30.1889 -68.2854 32.1897 -70.8149 34.4058C-73.6686 30.3452 -76.4423 26.3923 -79.1884 22.2517C-83.2951 16.2822 -87.3742 10.125 -91.2658 3.99545C-88.0435 2.93528 -84.9262 1.28471 -82.1592 0.0618613C-81.0309 -0.4433 -80.0903 -0.975968 -78.962 -1.48113C-74.3936 -3.87695 -69.9578 -6.67553 -65.7097 -9.5017C-54.5238 -17.1549 -44.5384 -26.4218 -35.0607 -36.1465C-16.0254 -55.4885 1.43419 -76.4993 23.9412 -92.0733C24.5866 -92.5535 23.8663 -93.5217 23.1408 -93.1491C1.3095 -78.9134 -16.6552 -59.0309 -35.8178 -41.4326C-45.6681 -32.4334 -55.706 -23.4616 -66.7043 -15.7809C-71.7331 -12.2069 -77.002 -8.95564 -82.6711 -6.24228C-85.4656 -4.83184 -88.4202 -3.63652 -91.2672 -2.52126C-92.3955 -2.01612 -93.5763 -1.80611 -94.7847 -1.40856C-100.222 -10.065 -105.631 -18.9091 -110.746 -27.8056C-107.946 -30.5569 -105.146 -33.3083 -102.159 -36.032C-96.4795 -41.4271 -90.4522 -46.5795 -84.5851 -51.9471C-74.6548 -60.8387 -65.4199 -70.2158 -56.6652 -80.2384C-39.8563 -99.4281 -26.2567 -120.91 -10.8386 -141.07C-10.5958 -141.418 -11.1036 -141.876 -11.3464 -141.528C-27.2722 -121.826 -42.7178 -101.477 -59.6592 -82.6904C-73.6382 -67.1101 -90.1008 -54.1943 -105.576 -40.1752C-108.24 -37.6916 -110.905 -35.2079 -113.489 -32.6166C-119.376 -42.7766 -124.941 -53.1767 -130.398 -63.6568C-130.478 -63.7644 -130.478 -63.7644 -130.558 -63.872C-114.627 -84.9156 -93.9658 -101.623 -78.0348 -122.667C-62.8043 -142.855 -51.8536 -165.875 -38.8968 -187.547C-38.2763 -188.51 -39.747 -189.589 -40.3676 -188.626C-53.4844 -167.169 -65.3981 -144.769 -81.1364 -125.039C-94.6377 -108.142 -111.773 -94.5588 -125.943 -78.3356C-128.475 -75.4491 -130.927 -72.4551 -133.219 -69.2459L-133.299 -69.3535C-149.054 -100.416 -161.667 -132.646 -173.447 -165.329C-174.322 -167.853 -178.483 -166.931 -178.01 -164.274C-171.254 -129.358 -156.232 -95.9116 -140.264 -64.3388C-138.641 -61.0339 -136.91 -57.8091 -135.287 -54.5042C-136.118 -54.722 -137.028 -55.0473 -137.859 -55.265C-140.806 -56.081 -143.725 -57.0847 -146.644 -58.0883C-152.643 -60.3107 -158.614 -62.7207 -164.585 -65.1307C-176.259 -69.8155 -187.906 -74.688 -200.123 -77.6318C-224.478 -83.4119 -249.907 -81.8749 -274.653 -83.6875C-275.886 -83.7727 -276.269 -81.8165 -274.956 -81.6237C-250.673 -77.9625 -225.834 -79.3945 -201.64 -73.8296C-188.939 -70.9107 -177.08 -65.5279 -165.193 -60.3327C-154.565 -55.7055 -143.376 -50.3253 -131.826 -48.0545C-131.534 -47.4365 -131.213 -47.0062 -130.921 -46.3883C-125.969 -37.0365 -120.695 -27.9248 -115.42 -18.8131C-118.395 -19.4414 -121.396 -19.8822 -124.426 -20.1353C-131.127 -20.8318 -138.02 -20.8854 -144.644 -20.8039C-157.892 -20.6409 -170.826 -18.7067 -183.97 -17.9533C-197.704 -17.0949 -211.377 -17.9526 -225.109 -17.7646C-238.17 -17.5741 -250.94 -16.0952 -262.817 -10.2683C-264.052 -9.6831 -263.362 -7.85682 -262.046 -8.33439C-250.416 -13.1432 -237.164 -13.9766 -224.774 -14.1698C-211.418 -14.4129 -197.987 -13.2074 -184.576 -13.8257C-172.13 -14.3941 -159.787 -16.2233 -147.369 -16.6041C-135.433 -16.96 -123.906 -15.8424 -112.304 -13.2765C-111.984 -12.8461 -111.691 -12.2282 -111.371 -11.7979C-104.976 -1.18003 -98.3662 9.27777 -91.3533 19.603C-91.6209 19.4679 -92.2914 19.4653 -92.9618 19.4627Z" fill="#84D994"/>
</svg>
