<svg width="590" height="1248" viewBox="0 0 590 1248" fill="none" xmlns="http://www.w3.org/2000/svg">
<path d="M755.212 598.874C743.289 632.525 726.256 665.466 708.288 693.378C691.559 721.366 673.643 764.229 644.546 777.874C631.404 784.009 612.636 792.891 626.262 749.28C637.361 698.933 677.773 669.915 699.987 616.825C704.252 603.17 708.128 589.947 711.312 576.619C706.407 574.529 701.633 572.295 696.741 570.478C695.939 573.673 695.006 577.012 694.059 580.077C686.385 605.286 674.798 629.042 662.78 652.408C651.879 673.386 641.265 694.625 630.077 715.343C610.194 751.718 583.124 792.563 583.191 835.779C588.084 845.964 592.832 856.019 597.724 866.204C598.887 867.519 600.062 869.107 600.965 870.709C601.552 871.503 601.449 872.194 600.929 872.769C601.844 874.644 602.747 876.246 603.662 878.121C604.504 867.379 608.501 856.619 613.53 847.316C622.319 830.689 633.687 816.41 646.882 803.001C685.947 763.348 733.223 731.659 768.684 688.48C781.757 672.608 793.498 654.743 803.856 636.672C789.298 622.437 772.749 609.534 755.212 598.874Z" fill="#446813"/>
<path d="M489.745 554.207C487.829 584.894 471.98 616.817 480.621 647.396C497.042 668.811 511.471 691.558 524.571 715.195C525.67 709.653 527.056 704.372 528.482 699.911C534.277 681.105 542.863 663.259 549.78 644.946C558.63 621.325 563.671 595.559 566.692 570.58C568.454 556.225 569.381 541.637 569.487 527.09C569.495 524.483 569.36 521.746 569.499 518.996C559.793 514.124 549.93 508.848 540.313 503.012C550.094 567.831 535.491 697.371 510.234 669.258C490.172 629.639 510.074 574.194 512.587 533.325C513.379 516.001 512.713 499.708 510.822 483.613C503.736 479.024 496.65 474.434 489.565 469.845C493.144 497.929 491.393 526.413 489.745 554.207Z" fill="#446813"/>
<path d="M558.157 642.338C552.178 660.193 543.552 677.218 537.716 695.203C534.733 704.267 532.038 713.592 530.998 723.109C530.908 724.074 530.819 725.039 530.729 726.003C531.03 726.537 531.33 727.071 531.775 727.735C549.153 760.215 564.116 793.917 579.618 827.313C579.824 817.562 581.671 807.731 584.502 798.257C591.306 774.874 601.893 753.088 613.184 731.678C623.982 711.391 634.377 691.261 644.47 670.596C661.059 636.99 679.146 603.172 688.47 566.906C675.452 561.649 662.463 556.941 649.459 551.957C641.885 668.254 603.172 753.985 561.183 728.755C534.049 684.82 590.577 682.171 600.889 574.107C602.574 560.991 603.842 547.758 604.563 534.553C594.624 530.516 584.671 526.205 574.965 521.333C575.837 536.243 575.341 551.221 573.893 566.383C570.899 591.911 566.289 618.066 558.157 642.338Z" fill="#446813"/>
<path d="M418.817 581.986C438.1 600.242 457.11 618.511 473.894 638.947C469.664 611.581 481.219 584.397 483.989 557.097C487.041 527.177 488.827 496.633 484.619 466.933C471.597 458.795 458.327 451.218 444.681 444.345C456.722 496.569 446.241 534.401 431.32 529.512C404.968 501.453 421.284 467.86 415.123 431.946C415.11 431.673 415.11 431.673 415.096 431.399C397.071 424.742 377.915 420.199 357.799 418.447C332.011 415.74 312.91 420.66 299.033 431.359C302.462 439.696 306.425 447.732 310.792 455.611C337.375 505.06 378.513 543.639 418.817 581.986ZM449.877 588.686C434.55 589.441 428.706 579.44 428.714 568.465C439.723 510.715 492.684 588.77 449.877 588.686Z" fill="#446813"/>
<path d="M742.354 727.642C722.573 746.589 701.773 764.352 681.273 782.648C663.533 798.476 646.785 814.941 631.931 833.645C624.954 842.5 618.973 851.987 615.107 862.604C611.967 871.264 610.64 880.521 609.99 889.608C611.664 892.955 613.612 896.289 615.416 899.492C623.836 914.442 632.659 929.235 642.277 943.44C665.505 927.616 691.385 915.502 717.05 904.491C731.287 898.301 745.825 892.646 760.376 887.264C773.715 882.353 787.342 877.703 800.511 872.115C822.133 862.68 844.859 850.585 862.702 834.066C870.058 813.537 873.035 793.223 872.05 773.242C857.796 784.646 843.645 795.358 831.499 805.011C812.028 821.885 650.919 904.464 676.757 832.944C682.686 816.875 740.73 800.432 756.267 792.807C786.853 773.19 813.06 753.789 836.524 723.274C842.195 715.86 847.448 708.33 852.284 700.684C841.495 679.403 826.797 659.549 809.457 641.747C805.895 647.41 802.333 653.073 798.887 658.319C782.441 683.686 763.957 706.685 742.354 727.642Z" fill="#446813"/>
<path d="M443.929 946.77C465.704 943.227 485.976 937.014 506.768 930.227C528.368 923.126 550.386 916.141 573.18 913.783C584.922 912.655 598.217 912.411 610.189 915.937C599.993 898.33 590.72 879.993 581.995 861.628C578.315 859.34 574.779 857.182 570.709 855.325C562.008 851.364 552.827 848.799 543.166 847.629C519.712 844.944 496.021 848.581 472.495 850.016C446.376 851.715 420.485 849.699 394.836 844.241C354.074 835.55 314.33 819.675 280.23 795.839C280.119 807.506 280.282 819.159 280.315 830.955C291.292 839.331 303.452 846.689 317.893 852.973C347.962 867.405 466.275 879.68 467.382 902.125C466.191 922.487 412.886 943.224 396.903 941.817C374.459 942.924 346.471 926.195 325.749 920.494C311.282 913.662 296.514 906.296 283.033 897.22C283.95 907.464 284.997 917.565 286.174 927.521C308.902 940.531 335.31 947.461 361.631 949.867C389.061 952.493 416.98 951.117 443.929 946.77ZM490.088 878.506C505.932 804.741 573.17 908.021 515.115 901.966C502.547 900.254 493.679 890.128 490.088 878.506Z" fill="#00210A"/>
<path d="M472.158 843.173C495.266 841.622 518.684 837.998 541.851 840.423C553.571 841.628 565.646 844.463 576.331 849.698C575.244 847.145 573.885 844.605 572.798 842.052C563.588 822.202 554.652 802.339 545.299 782.359C539.739 778.106 534.165 773.579 528.475 769.47C520.501 763.552 512.293 758.47 503.942 753.257C491.077 745.522 477.848 738.767 463.865 733.42C450.3 728.189 436.529 724.341 422.861 719.802C395.524 710.723 368.538 700.393 343.058 687.244C318.284 674.473 293.517 659.094 272.942 639.667C275.385 658.616 277.617 676.066 279.023 690.676C342.496 787.145 422.135 730.127 422.388 779.776C403.764 836.118 328.358 789.763 280.808 751.911C280.881 764.529 280.694 777.433 280.795 790.598C290.725 797.243 301.033 803.182 311.574 808.287C360.549 833.31 416.648 847.007 472.158 843.173ZM443.541 785.867C464.246 766.189 502.337 798.608 468.17 820.733C442.102 837.384 431.648 806.209 443.541 785.867Z" fill="#00210A"/>
<path d="M320.837 523.023C332.76 528.334 344.526 533.242 356.565 538.136C360.348 539.732 364.131 541.329 367.927 543.2C367.353 542.68 366.765 541.886 366.19 541.365C337.2 509.869 309.039 475.726 293.891 435.591C279.471 449.197 271.293 469.767 267.397 493.693C273.491 497.645 279.845 501.31 286.069 505.119C297.368 511.696 308.914 517.712 320.837 523.023Z" fill="#00210A"/>
<path d="M402.312 700.923C429.415 710.836 457.725 717.397 483.608 730.388C496.967 737.001 509.272 744.488 521.356 753.084C526.616 756.803 531.888 760.796 537.031 764.933C533.827 758.368 530.478 751.674 527.136 744.974C526.691 744.31 526.521 743.632 526.076 742.968C513.613 718.34 499.951 694.457 484.414 671.49C466.669 645.476 446.568 621.773 424.215 599.69C408.352 584.01 392.358 568.473 376.884 552.362C367.964 549.509 359.003 545.835 350.602 542.408C338.693 537.37 326.653 532.476 314.991 526.878C303.328 521.279 291.378 515.421 280.599 508.27C275.771 504.941 271.346 501.455 266.908 497.695C265.801 505.844 265.119 514.389 264.73 523.188C284.622 601.09 400.986 598.777 392.952 619.477C371.414 666.914 305.076 618.054 266.896 586.599C268.105 599.984 269.587 613.356 271.186 626.31C307.365 661.704 355.097 683.77 402.312 700.923ZM402.652 654.948C418.668 626.304 467.261 640.782 442.54 668.067C422.628 690.043 402.556 675.256 402.652 654.948Z" fill="#00210A"/>
<path d="M641.614 968.988C629.719 972.593 620.083 985.826 612.851 994.963C602.263 1008.38 592.667 1022.44 582.209 1035.71C567.354 1054.41 549.951 1068.72 526.722 1076.17C499.442 1084.93 470.621 1084.7 442.218 1084.59C419.302 1084.49 395.668 1083.73 373.757 1076.17C356.45 1070.16 341.156 1060.49 327.151 1049.11C352.319 1086.55 390.727 1114.29 449.599 1125.8C559.325 1147.55 648.767 1083.46 655.831 981.869C651.756 977.131 647.811 972.25 644.14 967.355C643.49 968.073 642.826 968.517 641.614 968.988Z" fill="#00210A"/>
<path d="M476.17 1074.82C502.94 1072.41 531.464 1066.61 553.255 1049.48C570.556 1035.87 582.88 1015.92 596.016 998.537C607.097 983.997 620.035 965.388 638.876 960.755C631.377 950.561 624.268 939.936 617.693 929.011C589.024 917.941 556.66 926.533 527.984 934.806C508.102 940.588 488.301 948.012 468.038 951.617C442.197 956.184 415.702 958.588 389.461 957.824C362.803 956.943 336.414 953.168 311.397 943.838C303.011 940.685 294.87 936.97 287.237 932.408C289.348 947.394 292.267 962.067 295.849 976.295C436.486 1071.29 526.356 943.529 510.995 1002.04C510.995 1002.04 478.547 1100.77 321.191 1039.52C321.334 1039.65 321.348 1039.93 321.492 1040.06C343.539 1058.73 368.731 1071.61 397.727 1075.4C423.528 1078.38 450.495 1077.19 476.17 1074.82ZM533.42 958.82C545.298 921.468 586.642 928.073 579.032 960.138C573.292 988.408 546.799 976.955 533.42 958.82Z" fill="#00210A"/>
<path d="M647.156 802.988C633.961 816.397 622.592 830.676 613.803 847.303C608.918 856.735 604.778 867.366 603.936 878.108C603.02 876.233 602.118 874.631 601.202 872.755C601.593 872.324 601.826 871.49 601.238 870.696C600.206 869.237 599.03 867.649 597.998 866.191C592.975 856.15 588.083 845.965 583.465 835.766C583.397 792.55 610.468 751.705 630.35 715.33C641.668 694.468 652.152 673.373 663.053 652.394C675.071 629.029 686.789 605.129 694.333 580.063C695.279 576.998 696.212 573.66 697.015 570.465C694.21 569.231 691.276 568.141 688.471 566.908C679.147 603.174 661.059 636.99 644.47 670.596C634.233 691.131 623.982 711.391 613.184 731.678C601.893 753.088 591.176 775.017 584.502 798.257C581.671 807.731 579.954 817.419 579.618 827.313C564.116 793.917 549.152 760.215 531.775 727.735C531.474 727.201 531.173 726.667 530.729 726.003C530.818 725.039 530.908 724.074 530.998 723.109C532.037 713.592 534.733 704.267 537.716 695.203C543.695 677.348 552.048 660.337 558.157 642.338C566.433 618.197 571.042 592.041 573.489 566.54C574.937 551.378 575.433 536.4 574.561 521.49C572.878 520.75 571.182 519.736 569.499 518.996C569.49 521.603 569.625 524.34 569.487 527.09C569.381 541.638 568.454 556.225 566.692 570.58C563.671 595.56 558.63 621.325 549.78 644.946C542.733 663.402 534.277 681.105 528.482 699.911C527.056 704.372 525.67 709.653 524.571 715.195C511.471 691.558 497.042 668.811 480.621 647.396C471.979 616.817 487.829 584.894 489.745 554.207C491.393 526.413 493.274 497.786 489.708 469.975C488.012 468.961 486.172 467.817 484.476 466.803C488.684 496.503 486.897 527.047 483.845 556.967C481.075 584.267 469.533 611.725 473.75 638.817C456.966 618.381 437.956 600.111 418.673 581.856C378.369 543.509 337.375 505.06 310.388 455.768C306.021 447.889 302.188 439.709 298.629 431.516C296.911 432.836 295.466 434.142 293.891 435.591C309.04 475.726 337.07 510.013 366.191 541.366C366.765 541.886 367.353 542.68 367.928 543.201C364.131 541.33 360.349 539.733 356.566 538.136C344.526 533.242 332.617 528.205 320.838 523.023C308.915 517.712 297.369 511.696 286.07 505.12C279.846 501.311 273.491 497.646 267.397 493.693C267.191 495.075 266.985 496.457 266.779 497.84C271.217 501.599 275.642 505.085 280.47 508.414C291.119 515.709 303.069 521.567 314.861 527.022C326.524 532.621 338.564 537.515 350.473 542.552C359.017 546.109 367.834 549.653 376.755 552.506C392.229 568.618 408.223 584.154 424.087 599.835C446.44 621.918 466.54 645.62 484.285 671.634C499.952 694.458 513.484 718.485 525.948 743.113C526.248 743.647 526.563 744.455 527.007 745.119C530.35 751.819 533.554 758.383 536.903 765.077C531.76 760.941 526.631 757.078 521.228 753.229C509.143 744.633 496.839 737.146 483.48 730.533C457.466 717.685 429.287 710.981 402.183 701.068C354.968 683.915 307.236 661.849 270.783 626.467C271.416 630.963 271.906 635.329 272.539 639.825C293.115 659.252 317.881 674.631 342.656 687.403C368.409 700.538 395.122 710.882 422.458 719.96C436.127 724.5 450.042 728.478 463.463 733.578C477.445 738.925 490.818 745.811 503.54 753.415C512.021 758.484 520.098 763.711 528.073 769.628C533.763 773.738 539.336 778.265 544.896 782.518C554.106 802.368 563.186 822.361 572.396 842.211C573.482 844.764 574.842 847.303 575.928 849.856C565.244 844.621 553.169 841.787 541.448 840.581C518.281 838.156 494.863 841.78 471.755 843.331C416.246 847.165 360.147 833.469 310.637 808.746C300.083 803.368 289.645 797.572 279.858 791.058C279.939 792.7 279.747 794.356 279.827 795.998C313.941 820.107 353.816 835.839 394.434 844.4C420.083 849.857 445.973 851.873 472.092 850.174C495.618 848.74 519.166 844.972 542.764 847.787C552.281 848.827 561.462 851.393 570.307 855.484C574.233 857.211 578.043 859.355 581.592 861.787C590.318 880.151 599.72 898.345 609.787 916.095C597.815 912.57 584.52 912.814 572.777 913.941C549.983 916.3 527.966 923.284 506.366 930.386C485.573 937.173 465.171 943.529 443.526 946.928C416.577 951.275 388.659 952.651 361.372 950.155C335.051 947.749 308.787 940.95 285.915 927.81C286.126 929.309 286.337 930.807 286.548 932.306C294.311 936.725 302.321 940.583 310.708 943.736C335.724 953.066 362.257 956.971 388.771 957.722C415.012 958.486 441.508 956.082 467.349 951.516C487.885 947.896 507.412 940.486 527.294 934.704C555.97 926.431 588.478 917.969 617.004 928.909C623.579 939.835 630.687 950.459 638.187 960.653C619.346 965.286 606.407 983.895 595.326 998.435C582.19 1015.82 569.866 1035.77 552.566 1049.38C530.774 1066.51 502.25 1072.3 475.481 1074.72C449.806 1077.08 422.709 1078.42 396.894 1075.17C367.768 1071.53 342.706 1058.49 320.658 1039.83C322.593 1042.89 324.527 1045.95 326.461 1049.01C340.467 1060.39 355.76 1070.06 373.068 1076.07C394.979 1083.63 418.613 1084.38 441.528 1084.49C469.788 1084.47 498.752 1084.82 526.032 1076.07C549.261 1068.61 566.665 1054.31 581.519 1035.61C592.107 1022.19 601.703 1008.14 612.161 994.861C619.393 985.725 629.03 972.491 640.925 968.886C642.006 968.559 642.8 967.971 643.307 967.123C647.122 972.148 650.923 976.899 654.998 981.637C660.392 988.093 666.047 994.262 671.961 1000.14C687.551 1015.84 705.003 1030.34 724.73 1040.89C725.937 1037.54 727.561 1034.31 729.328 1031.2C707.129 1015.01 686.113 997.8 667.803 977.027C663.585 972.159 659.367 967.291 655.408 962.136C653.645 959.754 651.751 957.515 649.987 955.132C648.524 953.284 647.191 951.292 645.858 949.3C647.72 948.11 649.596 947.195 651.601 946.136C674.834 933.192 698.107 921.069 722.705 910.66C750.658 898.855 779.854 890.008 807.637 877.526C824.009 870.133 840.588 861.359 855.129 850.216C857.74 844.737 859.947 839.415 862.01 833.963C844.167 850.482 821.442 862.577 799.82 872.012C786.794 877.73 773.154 882.107 759.684 887.161C745.133 892.543 730.739 898.328 716.359 904.387C690.694 915.399 664.683 927.656 641.586 943.337C631.838 929.275 622.871 914.353 614.725 899.389C612.921 896.185 611.103 892.708 609.299 889.505C609.949 880.418 611.276 871.161 614.416 862.501C618.282 851.884 624.262 842.397 631.239 833.542C645.95 814.708 662.698 798.243 680.582 782.545C700.951 764.392 722.025 746.616 741.663 727.539C763.539 706.568 781.749 683.583 798.196 658.216C801.641 652.97 805.204 647.307 808.766 641.644C807.029 639.809 805.162 638.117 803.569 636.412C793.21 654.483 781.47 672.348 768.396 688.22C733.366 731.789 686.22 763.335 647.156 802.988Z" fill="#65A30D"/>
<path d="M582.148 106.272C573.34 100.011 564.572 93.651 555.587 87.5533C545.409 80.651 534.773 74.0362 524.965 66.4691C515.056 58.8644 505.109 51.3598 495.594 43.3289C495.005 42.7561 495.731 41.7673 496.359 42.239C508.401 51.8141 521.207 60.3005 534.114 68.8255C547.247 77.6666 560.456 86.3075 573.309 95.2719C584.24 102.923 595.133 110.676 606.024 118.428C617.483 126.512 628.941 134.596 640.439 142.579C642.424 144.033 644.548 145.423 646.532 146.877C646.244 146.421 645.958 145.964 645.67 145.509C631.364 129.184 606.205 105.006 598.328 99.3333C569.155 78.6899 488.992 35.8388 482.594 29.9261C487.072 45.3639 506.166 63.0645 517.351 74.2717C532.094 87.6505 546.031 100.722 564.288 109.453C578.393 116.361 625.248 139.405 645.123 151.756C645.766 151.887 646.308 151.98 646.952 152.111C625.276 137.225 603.769 121.598 582.148 106.272Z" fill="#00210A"/>
<path d="M645.336 60.5195C647.07 87.9339 648.17 117.297 650.677 144.201C643.6 121.079 637.249 96.9661 624.217 77.3243C605.134 48.4449 578.402 23.5489 557.049 -1.81955C549.718 -9.81994 542.488 -17.7817 537.208 -26.6096C553.483 14.1075 575.628 50.9644 604.21 84.2945C619.875 103.101 631.689 124.12 644.661 143.622C643.014 140.685 641.367 137.748 639.784 134.949C627.986 113.591 616.644 91.9457 602.742 71.856C595.454 61.3349 587.886 50.9385 580.497 40.3791C573.146 29.7191 566.113 18.8357 559.079 7.95184C558.791 7.49614 559.426 7.04714 559.751 7.40285C564.89 14.7932 570.307 22.0583 575.584 29.3869C590.191 49.7473 606.029 69.3109 619.051 90.7933C630.697 110.134 640.975 130.333 652.345 149.797C652.218 148.02 652.192 146.28 652.165 144.541C652.025 139.182 652.125 133.802 652.425 128.498C653.772 104.802 658.449 81.4607 658.673 57.6795C658.698 44.6597 657.661 31.6944 656.626 18.7295C656.088 12.2983 655.59 5.76583 655.015 -0.56661C654.376 -7.03668 654.179 -13.4548 653.642 -19.8861C653.619 -20.1256 653.959 -20.1113 654.021 -19.9713C655.257 -8.42897 657.211 3.04373 658.446 14.5856C659.9 27.3658 661.176 40.3066 661.669 53.1784C662.107 64.9923 661.183 76.7441 660.156 88.4565C659.092 100.271 657.787 112.107 657.165 123.975C656.771 129.819 656.619 135.641 656.667 141.54C656.702 143.859 656.737 146.178 656.873 148.537C670.542 126.454 678.826 97.9232 676.298 72.2798C673.735 49.7362 671.136 27.2931 665.409 6.07161C661.467 -8.35358 653.654 -21.7262 650.915 -34.7681C637.755 -9.49272 643.765 33.2834 645.336 60.5195Z" fill="#00210A"/>
<path d="M609.17 273.212C605.11 285.606 601.276 298.317 598.903 311.129C598.812 311.67 597.89 311.662 598.021 311.02C598.235 309.257 598.588 307.433 598.802 305.671C602.824 280.118 611.232 255.786 620.849 231.918C625.715 219.832 631.085 207.941 636.416 196.149C639.031 190.235 641.785 184.258 644.4 178.343C645.797 175.304 647.233 172.165 648.528 169.088C649.323 167.318 650.017 165.508 650.912 163.776C649.682 164.573 648.491 165.269 647.299 165.964C641.582 173.342 635.283 180.726 629.286 188.227C629.911 187.199 630.538 186.17 631.201 185.042C634.863 179.412 639.329 174.092 643.192 168.54C642.735 168.826 642.379 169.151 641.923 169.438C636.441 173.791 632.213 179.089 627.546 184.331C619.291 193.501 611.54 202.866 604.176 212.725C596.851 222.484 589.954 232.636 581.737 241.706C573.838 250.552 565.225 258.548 556.837 266.861C548.488 275.074 539.659 283.333 532.488 292.689C532.195 293.154 531.566 292.682 531.86 292.218C535.799 286.465 539.902 280.89 544.57 275.647C549.201 270.505 554.133 265.478 559.127 260.591C567.592 252.077 576.057 243.563 583.568 234.223C591.296 224.619 598.031 214.289 605.394 204.429C612.718 194.67 620.896 185.701 628.709 176.476C631.267 173.421 634.027 170.444 637.011 167.783C634.11 169.324 631.309 170.901 628.47 172.579C630.898 170.166 633.162 167.576 635.628 165.063C636.527 164.831 637.362 164.459 638.197 164.089C636.819 164.367 635.504 164.784 634.188 165.203C630.381 166.394 626.596 167.825 623.013 169.333C615.329 172.497 607.918 176.457 600.77 180.633C591.518 186.079 582.49 191.84 573.339 197.323C568.853 199.985 564.365 202.645 559.716 205.128C554.928 207.672 549.913 209.899 545.147 212.684C524.77 224.239 506.729 239.343 487.991 253.255C487.635 253.58 487.185 252.946 487.501 252.722C503.177 240.17 518.2 226.908 534.877 215.663C539.557 212.5 544.298 209.476 549.265 206.768C553.853 204.148 558.627 201.942 563.214 199.321C572.528 194.015 581.393 188.075 590.52 182.352C599.369 176.753 608.444 171.47 618.054 167.201C621.397 165.715 624.662 164.432 628.091 163.324C622.911 163.875 617.733 164.426 612.452 164.936C585.115 167.826 558.682 174.983 531.93 180.866C516.14 184.379 500.224 187.614 484.309 190.85C472.667 193.188 461.063 195.424 449.279 196.324C448.799 196.371 448.728 195.651 449.17 195.705C456.029 194.993 462.756 193.422 469.506 192.09C500.299 185.913 530.741 177.642 561.401 170.608C572.4 168.138 583.415 165.33 594.485 163.581C603.837 162.093 613.196 161.187 622.596 160.179C628.394 159.522 634.293 158.902 640.108 157.903C642.964 157.384 645.921 156.904 648.755 156.146C648.893 156.083 649.033 156.022 649.234 156.099C647.848 155.798 646.399 155.357 644.973 155.157C635.717 153.683 626.538 152.007 617.398 150.23C591.403 145.104 565.438 139.295 539.235 135.01C526.586 133.042 513.914 130.834 501.304 128.765C488.834 126.633 476.479 124.201 464.486 120.523C463.781 120.253 464.228 119.388 464.871 119.519C483.711 124.323 502.905 127.303 522.19 129.741C535.055 131.447 547.857 133.014 560.591 135.362C573.666 137.724 586.803 140.226 599.762 142.89C612.822 145.593 625.921 148.196 639.074 150.358C640.901 150.713 642.768 150.968 644.595 151.323C617.849 141.525 590.969 130.87 563.436 123.424C544.022 117.708 526.076 115.091 505.732 114.206C487.913 113.367 461.484 112.685 441.267 113.579C440.105 113.595 438.781 113.432 437.666 113.928C477.286 129.93 514.858 144.34 557.329 152.904C565.548 154.673 575.246 156.202 585.817 157.258C578.78 158.134 571.881 158.946 565.138 159.357C517.219 162.887 475.224 184.714 429.806 197.387C468.847 214.897 519.869 196.648 558.749 187.462C560.166 187.082 561.683 186.743 563.1 186.363C559.425 188.412 555.928 190.3 552.748 191.963C513.547 213.132 489.042 243.282 459.925 274.313C502.853 254.573 543.383 236.567 581.837 208.308C584.589 206.251 587.444 204.233 590.235 202.075C584.252 207.735 578.531 213.613 573.113 219.604C561.325 232.264 527.172 285.462 516.717 308.202C551.787 293.288 584.732 263.725 603.501 230.452C604.32 228.922 605.277 227.329 606.095 225.798C605.864 226.401 605.594 227.105 605.363 227.708C591.916 267.287 584.694 297.263 588.797 338.383C610.673 310.569 627.593 268.864 635.127 235.664C639.999 213.32 646.431 193.534 653.05 168.747C642.974 191.401 632.294 213.824 622.785 236.81C617.857 248.757 613.193 260.919 609.17 273.212Z" fill="#00210A"/>
<path d="M653.563 -19.6854C654.101 -13.2541 654.297 -6.83651 654.935 -0.366437C655.573 6.1048 656.11 12.5373 656.546 18.9309C657.482 31.8563 658.618 44.8599 658.594 57.8797C658.509 81.5997 653.693 105.003 652.347 128.699C652.007 134.103 651.946 139.383 652.086 144.741C652.112 146.48 652.239 148.259 652.265 149.997C640.897 130.534 630.619 110.335 618.971 90.9935C605.949 69.5111 590.213 49.9863 575.506 29.5876C570.228 22.2585 564.811 14.9935 559.672 7.60323C559.385 7.14751 558.712 7.69643 559 8.15215C566.033 19.0359 573.067 29.9193 580.418 40.5792C587.706 51.1004 595.273 61.4963 602.663 72.0562C616.603 92.0459 627.906 113.791 639.704 135.149C641.351 138.087 642.896 140.986 644.581 143.822C644.93 144.418 645.241 145.113 645.692 145.748C645.98 146.204 646.267 146.659 646.554 147.116C644.569 145.663 642.444 144.271 640.461 142.818C628.963 134.835 617.505 126.751 606.046 118.667C595.155 110.915 584.223 103.263 573.33 95.511C560.415 86.4066 547.206 77.7669 534.136 69.0645C521.368 60.4782 508.562 51.9919 496.381 42.4769C495.652 41.9678 494.926 42.9566 495.616 43.568C505.131 51.5977 515.078 59.1024 524.987 66.7082C534.834 74.1742 545.329 80.8513 555.609 87.7924C564.593 93.8901 573.4 100.15 582.169 106.511C603.753 121.937 625.158 137.525 647.136 152.528C646.493 152.396 645.951 152.303 645.307 152.172C645.005 152.056 644.765 152.079 644.463 151.963C642.635 151.609 640.807 151.253 638.94 150.999C625.788 148.837 612.728 146.133 599.63 143.532C586.57 140.828 573.534 138.365 560.459 136.002C547.686 133.755 534.922 132.089 522.057 130.383C502.772 127.944 483.617 124.863 464.738 120.16C464.096 120.028 463.648 120.894 464.353 121.165C476.447 124.881 488.801 127.313 501.171 129.406C513.781 131.474 526.454 133.683 539.102 135.651C565.343 139.836 591.17 145.705 617.266 150.872C626.406 152.647 635.686 154.362 644.841 155.798C646.266 155.999 647.614 156.401 649.101 156.741C648.962 156.802 648.862 156.763 648.622 156.788C645.828 157.444 642.832 158.025 639.976 158.544C634.161 159.542 628.363 160.201 622.463 160.821C613.064 161.828 603.704 162.735 594.353 164.221C583.181 165.932 572.205 168.641 561.269 171.248C530.608 178.283 500.268 186.593 469.373 192.731C462.623 194.063 455.858 195.734 449.037 196.346C448.557 196.393 448.768 197.049 449.147 196.964C460.931 196.065 472.636 193.867 484.177 191.49C500.092 188.256 516.007 185.02 531.798 181.507C558.55 175.625 585.021 168.368 612.319 165.577C617.499 165.028 622.779 164.516 627.959 163.966C624.53 165.072 621.125 166.419 617.921 167.842C608.311 172.111 599.237 177.393 590.388 182.994C581.26 188.717 572.396 194.655 563.082 199.961C558.494 202.584 553.782 204.927 549.132 207.41C544.165 210.118 539.424 213.141 534.744 216.304C518.068 227.549 503.045 240.812 487.369 253.363C487.014 253.687 487.401 254.183 487.858 253.896C506.597 239.983 524.638 224.88 545.015 213.326C549.742 210.641 554.694 208.274 559.584 205.768C564.194 203.387 568.682 200.726 573.206 197.965C582.358 192.482 591.385 186.719 600.638 181.275C607.825 176.998 615.197 173.138 622.881 169.975C626.603 168.404 630.348 167.074 634.056 165.843C635.371 165.426 636.788 165.046 638.065 164.729C640.1 164.242 642.098 163.855 644.134 163.367C642.942 164.064 641.751 164.759 640.661 165.494C639.392 166.392 638.085 167.388 636.878 168.425C633.793 171.047 631.135 174.062 628.577 177.116C620.725 186.442 612.586 195.312 605.261 205.07C597.898 214.928 591.062 225.221 583.435 234.864C575.925 244.204 567.421 252.818 558.995 261.233C554.1 266.158 549.169 271.184 544.438 276.287C539.77 281.531 535.667 287.106 531.728 292.859C531.434 293.322 532.101 293.694 532.355 293.33C539.527 283.974 548.255 275.677 556.705 267.503C565.092 259.19 573.744 251.094 581.604 242.348C589.72 233.238 596.719 223.124 604.043 213.365C611.407 203.507 619.259 194.182 627.413 184.972C632.081 179.729 636.27 174.532 641.791 170.078C642.147 169.753 642.602 169.467 643.059 169.181C644.366 168.183 645.836 167.364 647.205 166.506C648.397 165.809 649.728 165.051 650.818 164.316C649.923 166.049 649.229 167.858 648.434 169.629C647.038 172.667 645.703 175.845 644.307 178.883C641.691 184.799 638.937 190.775 636.322 196.691C630.951 208.582 625.621 220.374 620.755 232.458C611.038 256.288 602.692 280.758 598.707 306.21C598.393 307.935 598.141 309.799 597.926 311.561C597.835 312.102 598.718 312.21 598.809 311.669C601.32 298.796 605.118 286.185 609.076 273.753C613.099 261.46 617.662 249.258 622.59 237.314C632.1 214.326 642.742 192.003 652.855 169.249C653.38 168.182 653.804 167.076 654.328 166.008C654.405 165.808 654.482 165.607 654.559 165.406C654.817 166.542 655.012 167.539 655.27 168.676C655.589 169.952 655.77 171.288 655.95 172.626C656.725 177.536 657.259 182.468 657.554 187.423C658.23 197.714 658.046 208.136 657.421 218.503C656.154 239.578 653.526 260.592 650.292 281.374C648.959 289.972 647.766 298.507 646.874 307.158C646.782 307.7 647.564 307.77 647.655 307.228C654.356 266.561 664.478 225.706 661.932 184.144C661.773 181.547 661.513 178.911 661.214 176.375C661.025 174.458 660.735 172.502 660.446 170.546C660.085 167.871 659.624 165.157 659.022 162.505C659.527 162.699 659.968 162.753 660.471 162.946C663.849 163.78 667.28 164.173 670.75 164.467C678.03 165.068 685.262 165.19 692.557 165.451C701.594 165.689 710.563 166.708 719.691 166.403C727.42 166.139 735.138 165.295 742.786 163.731C742.219 161.899 741.75 160.105 741.181 158.273C728.301 160.828 714.929 161.348 701.655 160.409C687.94 159.414 673.67 160.168 660.447 157.286C660.107 157.272 659.401 157.001 658.696 156.731C658.595 156.692 658.495 156.654 658.394 156.615C658.447 156.174 658.299 155.656 657.872 155.261C657.974 155.3 657.872 155.261 657.71 155.084C657.608 155.045 657.508 155.007 657.446 154.867C657.346 154.829 657.245 154.79 657.182 154.651L657.082 154.613L656.981 154.574C656.964 153.415 656.745 152.177 656.688 151.118C656.618 150.4 656.547 149.68 656.576 148.999C656.442 146.641 656.407 144.323 656.372 142.003C656.284 136.205 656.476 130.282 656.869 124.437C657.593 112.609 658.897 100.772 659.861 88.9196C660.887 77.2066 661.812 65.4554 661.374 53.6426C660.881 40.7696 659.566 27.9283 658.151 15.0487C656.916 3.50676 654.961 -7.96637 653.726 -19.5083C653.919 -20.0106 653.539 -19.9254 653.563 -19.6854ZM648.318 160.591L648.256 160.451C648.495 160.428 648.635 160.366 648.875 160.343C648.635 160.366 648.457 160.528 648.318 160.591Z" fill="#84D994"/>
</svg>
