<svg width="256" height="80" viewBox="0 0 256 80" fill="none" xmlns="http://www.w3.org/2000/svg">
<rect width="256" height="80" rx="5" fill="#14532D"/>
<path d="M43.9677 15H60.0324V63.0716H63.7044V64.2537H44.23V63.0716H47.8363V16.1821H43.9677V15Z" fill="#FFFBEB"/>
<path d="M80.7138 48.8209H82.6153V43.7641C82.6153 39.6049 82.3749 36.8248 81.894 35.4239C81.4569 33.9791 80.5826 33.2567 79.2712 33.2567C78.4844 33.2567 77.7631 33.4756 77.1074 33.9134C76.4954 34.3074 76.1894 34.8766 76.1894 35.6209C76.1894 36.3214 76.3205 37.0438 76.5828 37.788H78.2221C78.5718 38.7074 78.7466 39.8239 78.7466 41.1373C78.7466 42.4069 78.2002 43.5233 77.1074 44.4865C76.0145 45.4059 74.6376 45.8656 72.9764 45.8656C69.2171 45.8656 67.3374 44.0487 67.3374 40.4149C67.3374 35.0298 71.9055 32.3373 81.0416 32.3373C86.2435 32.3373 89.828 33.2348 91.7952 35.0298C93.806 36.7811 94.8114 40.0209 94.8114 44.7492V58.0805C94.8114 60.3572 95.4452 61.4955 96.7129 61.4955C98.1992 61.4955 99.0735 59.2407 99.3358 54.7313L100.319 54.797C100.144 58.6497 99.4232 61.2985 98.1555 62.7432C96.8878 64.188 94.8114 64.9104 91.9263 64.9104C86.6807 64.9104 83.6644 63.2905 82.8776 60.0507C82.3093 61.7144 81.4569 62.9402 80.3203 63.7283C79.1838 64.5164 77.5227 64.9104 75.337 64.9104C68.8674 64.9104 65.6325 62.2616 65.6325 56.9641C65.6325 53.8557 66.8565 51.7323 69.3045 50.594C71.7962 49.4119 75.5993 48.8209 80.7138 48.8209ZM78.0909 56.8985C78.0909 59.1751 78.2002 60.6417 78.4188 61.2985C78.6811 61.9552 79.1401 62.2835 79.7958 62.2835C80.4952 62.2835 81.129 61.7363 81.6973 60.6417C82.3093 59.5034 82.6153 57.9492 82.6153 55.9791V49.8716H82.1563C79.4461 49.8716 78.0909 51.8636 78.0909 55.8477V56.8985Z" fill="#FFFBEB"/>
<path d="M101.095 32.994H116.897V39.0358C117.597 37.0219 118.668 35.402 120.11 34.1761C121.553 32.9502 123.739 32.3373 126.667 32.3373C133.443 32.3373 136.831 35.993 136.831 43.3044V63.0716H140.503V64.2537H121.946V63.0716H124.635V41.7283C124.635 39.1015 124.46 37.4159 124.11 36.6716C123.76 35.8836 123.127 35.4895 122.209 35.4895C120.81 35.4895 119.564 36.4089 118.471 38.2477C117.422 40.0865 116.897 42.3194 116.897 44.9462V63.0716H119.717V64.2537H101.095V63.0716H104.701V34.1761H101.095V32.994Z" fill="#FFFBEB"/>
<path fill-rule="evenodd" clip-rule="evenodd" d="M3 18.2836H22.2777C28.8785 18.2836 33.7962 19.2468 37.0311 21.1731C40.2659 23.0557 41.8833 26.4487 41.8833 31.3522C41.8833 36.7811 39.9161 40.5243 35.9819 42.5821C32.31 44.4646 27.1736 45.4059 20.5729 45.4059H20.0483V63.0059H28.2446V64.2537H3V63.0059H7.26208V19.5313H3V18.2836ZM20.0483 44.1582V19.5313H21.8187C24.3104 19.5313 26.0152 20.2756 26.9332 21.7642C27.8949 23.2527 28.3758 25.8577 28.3758 29.5791V32.7313C28.3758 36.7592 27.873 39.6706 26.8676 41.4656C25.8622 43.2607 24.0481 44.1582 21.4253 44.1582H20.0483Z" fill="#FFFBEB"/>
<path d="M184.089 33.0836V34.2657H186.777L198.908 64.3433H206.383L216.087 34.2657H218.972V33.0836H210.12V34.2657H214.513L207.432 56.0687L199.563 34.2657H203.694V33.0836H184.089Z" fill="#FFFBEB"/>
<path fill-rule="evenodd" clip-rule="evenodd" d="M233.394 48.9105H235.296V43.8538C235.296 39.6946 235.056 36.9145 234.575 35.5135C234.138 34.0687 233.263 33.3463 231.952 33.3463C231.165 33.3463 230.444 33.5652 229.788 34.003C229.176 34.3971 228.87 34.9662 228.87 35.7105C228.87 36.411 229.001 37.1334 229.264 37.8777H230.903C231.253 38.7971 231.427 39.9135 231.427 41.2269C231.427 42.4966 230.881 43.613 229.788 44.5762C228.695 45.4956 227.318 45.9553 225.657 45.9553C221.898 45.9553 220.018 44.1383 220.018 40.5045C220.018 35.1194 224.586 32.4269 233.722 32.4269C238.924 32.4269 242.509 33.3244 244.476 35.1194C246.487 36.8707 247.492 40.1105 247.492 44.8388V58.1702C247.492 60.4468 248.126 61.5851 249.394 61.5851C250.88 61.5851 251.754 59.3304 252.016 54.8209L253 54.8866C252.825 58.7393 252.104 61.3881 250.836 62.8328C249.568 64.2776 247.492 65 244.607 65C239.361 65 236.345 63.3801 235.558 60.1403C234.99 61.804 234.138 63.0299 233.001 63.8179C231.864 64.606 230.203 65 228.018 65C221.548 65 218.313 62.3513 218.313 57.0538C218.313 53.9453 219.537 51.8219 221.985 50.6836C224.477 49.5015 228.28 48.9105 233.394 48.9105ZM230.772 56.9881C230.772 59.2647 230.881 60.7314 231.099 61.3881C231.362 62.0448 231.821 62.3731 232.476 62.3731C233.176 62.3731 233.81 61.8259 234.378 60.7313C234.99 59.593 235.296 58.0388 235.296 56.0687V49.9612H234.837C232.127 49.9612 230.772 51.9533 230.772 55.9373V56.9881Z" fill="#FFFBEB"/>
<path d="M165.656 33.0836H181.721V63.1612H185.393V64.3433H165.918V63.1612H169.525V34.2657H165.656V33.0836Z" fill="#FFFBEB"/>
<path fill-rule="evenodd" clip-rule="evenodd" d="M169.319 23.8015L172.007 22.1597C172.182 21.3717 172.095 20.7149 171.745 20.1896C171.439 19.6642 170.98 19.4015 170.368 19.4015C169.756 19.4015 169.21 19.4891 168.729 19.6642C168.248 19.7955 167.549 20.1677 166.631 20.7806C165.756 21.3936 164.882 22.1816 164.008 23.1448C162.017 25.3421 160.158 28.655 158.432 33.0836H156.818C161.225 21.2478 167.184 15.3299 174.696 15.3299C176.881 15.3299 178.674 15.9866 180.072 17.3C181.515 18.5697 182.236 20.2552 182.236 22.3567C182.236 24.4144 181.602 26.0125 180.335 27.1508C179.067 28.2453 177.537 28.7926 175.745 28.7926C173.996 28.7926 172.554 28.3547 171.417 27.4791C170.324 26.5597 169.625 25.3338 169.319 23.8015Z" fill="url(#paint0_linear_405_218)"/>
<path d="M156.818 33.0836H155.587V21.5911L143.391 24.612V33.0836H139.785V34.2657H143.391V54.9523C143.391 58.7612 144.353 61.3881 146.276 62.8328C148.2 64.2776 150.976 65 154.604 65C158.232 65 160.833 64.1244 162.407 62.3731C163.98 60.5781 164.942 58.1702 165.292 55.1493L164.177 55.0179C163.871 57.2945 163.215 59.0896 162.21 60.403C161.248 61.7164 160.112 62.3731 158.8 62.3731C157.489 62.3731 156.615 61.8916 156.178 60.9284C155.784 59.9652 155.587 58.4547 155.587 56.397V34.2657H164.112V33.0836H158.432H156.818Z" fill="#FFFBEB"/>
<defs>
<linearGradient id="paint0_linear_405_218" x1="180.049" y1="36.0098" x2="176.047" y2="41.9276" gradientUnits="userSpaceOnUse">
<stop stop-color="#D9F99D"/>
<stop offset="0.604167" stop-color="#E3F2C5"/>
<stop offset="1" stop-color="#F8F3EB"/>
</linearGradient>
</defs>
</svg>
