<svg width="80" height="80" viewBox="0 0 80 80" fill="none" xmlns="http://www.w3.org/2000/svg">
<rect width="80" height="80" rx="40" fill="#14532D"/>
<path d="M20.8 15.36H41.4247C48.4866 15.36 53.748 16.3885 57.2088 18.4456C60.6696 20.4559 62.4001 24.0791 62.4001 29.3153C62.4001 35.1124 60.2955 39.1097 56.0864 41.307C52.1579 43.3173 46.6627 44.3224 39.6007 44.3224H39.0395V63.1165H47.8085V64.4489H46.2454H46.2275H20.8V63.1165H25.3599V16.6924H20.8V15.36ZM39.0395 16.6924V42.99H40.5127C43.3188 42.99 45.2596 42.0316 46.3353 40.1148C47.411 38.198 47.9488 35.0891 47.9488 30.7879V27.4219C47.9488 23.448 47.4343 20.6663 46.4054 19.0767C45.4233 17.4872 43.5994 16.6924 40.9336 16.6924H39.0395Z" fill="#FFFBEB"/>
<path fill-rule="evenodd" clip-rule="evenodd" d="M54.7145 56.9159L53.179 57.8519C53.3538 58.7254 53.7533 59.4242 54.3774 59.9483C55.0266 60.4475 55.8504 60.697 56.8491 60.697C57.8727 60.697 58.7466 60.3851 59.4706 59.7611C60.1946 59.1122 60.5566 58.2013 60.5566 57.0283C60.5566 55.8303 60.1447 54.8694 59.3208 54.1456C58.5219 53.3969 57.4982 53.0225 56.2499 53.0225C51.9307 53.0225 48.5103 56.4417 45.9887 63.2802L46.2275 64.4489H46.2454C47.2945 61.6389 48.9267 58.8202 50.1456 57.4775C50.6449 56.9284 51.1442 56.4792 51.6436 56.1298C52.1679 55.7804 52.5673 55.5682 52.842 55.4934C53.1166 55.3935 53.4287 55.3436 53.7782 55.3436C54.1278 55.3436 54.3899 55.4934 54.5647 55.7928C54.7644 56.0923 54.8143 56.4667 54.7145 56.9159Z" fill="url(#paint0_linear_402_424)"/>
<defs>
<linearGradient id="paint0_linear_402_424" x1="50.0198" y1="60.7224" x2="46.5008" y2="63.0012" gradientUnits="userSpaceOnUse">
<stop stop-color="#D9F99D"/>
<stop offset="0.328125" stop-color="#D5F2AB"/>
<stop offset="1" stop-color="#F8F3EB"/>
</linearGradient>
</defs>
</svg>
